<svg id="Layer_1" height="512" viewBox="0 0 24 24" width="512" xmlns="http://www.w3.org/2000/svg" xmlns:xlink="http://www.w3.org/1999/xlink" data-name="Layer 1"><linearGradient id="linear-gradient" gradientUnits="userSpaceOnUse" x1="1.486" x2="20.509" y1="-3.394" y2="28.243"><stop offset="0" stop-color="#6464de"/><stop offset=".236" stop-color="#a35dc8"/><stop offset=".453" stop-color="#d656b5"/><stop offset=".558" stop-color="#ea54ae"/><stop offset=".674" stop-color="#ea58ac"/><stop offset=".782" stop-color="#eb63a5"/><stop offset=".888" stop-color="#ec7699"/><stop offset=".992" stop-color="#ed9189"/><stop offset="1" stop-color="#ed9388"/></linearGradient><linearGradient id="linear-gradient-2" x1="26.023" x2="-.893" xlink:href="#linear-gradient" y1="16.63" y2="16.63"/><linearGradient id="linear-gradient-3" gradientUnits="userSpaceOnUse" x1="2.457" x2="4.66" y1="11.329" y2="11.329"><stop offset="0" stop-color="#6464de"/><stop offset=".381" stop-color="#ea54ae"/><stop offset="1" stop-color="#ed9388"/></linearGradient><linearGradient id="linear-gradient-5" x1="24.831" x2="-29.347" xlink:href="#linear-gradient" y1="11.329" y2="11.329"/><linearGradient id="linear-gradient-6" gradientUnits="userSpaceOnUse" x1=".532" x2="25.97" y1="9.155" y2="9.155"><stop offset="0" stop-color="#e3d08e"/><stop offset=".247" stop-color="#e3cd8e"/><stop offset=".433" stop-color="#e5c38d"/><stop offset=".599" stop-color="#e8b38b"/><stop offset=".752" stop-color="#eb9d89"/><stop offset=".804" stop-color="#ed9388"/></linearGradient><linearGradient id="linear-gradient-8" x1="24.831" x2="-29.347" xlink:href="#linear-gradient" y1="19.852" y2="19.852"/><linearGradient id="linear-gradient-9" gradientUnits="userSpaceOnUse" x1="24.162" x2=".152" y1="10.179" y2="10.179"><stop offset="0" stop-color="#6464de"/><stop offset=".498" stop-color="#ea54ae"/><stop offset=".618" stop-color="#ea5da8"/><stop offset=".816" stop-color="#ec7699"/><stop offset="1" stop-color="#ed9388"/></linearGradient><linearGradient id="linear-gradient-10" x1="24.162" x2=".152" xlink:href="#linear-gradient-9" y1="12.756" y2="12.756"/><linearGradient id="linear-gradient-11" x1="24.162" x2=".152" xlink:href="#linear-gradient-9" y1="5.64" y2="5.64"/><path d="m21.543 10.817a1.89 1.89 0 0 0 -1.44-.655h-.763v-7.727a1.51 1.51 0 0 0 -1.511-1.51h-11.658a1.51 1.51 0 0 0 -1.511 1.51v7.727h-.76a1.89 1.89 0 0 0 -1.44.655 1.883 1.883 0 0 0 -.5 1.287v9.03a1.95 1.95 0 0 0 1.94 1.941h16.2a1.95 1.95 0 0 0 1.942-1.941v-9.034a1.883 1.883 0 0 0 -.499-1.283z" fill="url(#linear-gradient)"/><path d="m10.1 16.63-4.853 3.7-2.779 2.113a1.929 1.929 0 0 1 -.513-1.309v-9.034a1.883 1.883 0 0 1 .5-1.287l2.205 1.687z" fill="url(#linear-gradient-2)"/><path d="m4.66 12.5-2.2-1.679a1.89 1.89 0 0 1 1.44-.655h.76z" fill="url(#linear-gradient-3)"/><path d="m22.045 12.1v9.03a1.929 1.929 0 0 1 -.513 1.309l-2.781-2.116-4.851-3.693 5.44-4.13 2.2-1.679a1.883 1.883 0 0 1 .505 1.279z" fill="url(#linear-gradient-2)"/><path d="m21.543 10.817-2.203 1.683v-2.338h.76a1.89 1.89 0 0 1 1.443.655z" fill="url(#linear-gradient-5)"/><path d="m19.34 2.435v10.065l-5.44 4.13-.28.212a2.676 2.676 0 0 1 -3.236 0l-.28-.212-5.444-4.13v-10.065a1.51 1.51 0 0 1 1.511-1.51h11.658a1.51 1.51 0 0 1 1.511 1.51z" fill="url(#linear-gradient-6)"/><path d="m4.66 10.162v2.338l-2.2-1.679a1.89 1.89 0 0 1 1.44-.655z" fill="url(#linear-gradient-5)"/><path d="m21.532 22.443a1.923 1.923 0 0 1 -1.429.632h-16.203a1.923 1.923 0 0 1 -1.429-.632l2.781-2.116 4.853-3.7.28.212a2.676 2.676 0 0 0 3.236 0l.28-.212 4.853 3.7z" fill="url(#linear-gradient-8)"/><path d="m15.167 10.768h-6.333a.589.589 0 0 1 0-1.178h6.333a.589.589 0 0 1 0 1.178z" fill="url(#linear-gradient-9)"/><path d="m13.073 13.345h-2.145a.589.589 0 0 1 0-1.178h2.145a.589.589 0 0 1 0 1.178z" fill="url(#linear-gradient-10)"/><path d="m14.159 5.975-1.607 1.434a.842.842 0 0 1 -1.115 0l-1.363-1.2-.233-.24a1.365 1.365 0 0 1 0-1.923 1.37 1.37 0 0 1 1.923 0l.232.24.24-.24a1.364 1.364 0 0 1 .958-.394 1.392 1.392 0 0 1 .965.394 1.365 1.365 0 0 1 0 1.929z" fill="url(#linear-gradient-11)"/></svg>